<svg xmlns="http://www.w3.org/2000/svg" xmlns:svg="http://www.w3.org/2000/svg" id="svg4119" width="180" height="180" version="1.1"><metadata id="metadata4124"/><g id="layer1" transform="translate(0,-872.3622)"><path id="path3029" d="M 132.19562,1031.5632 180,1005.0808 l 0,-129.93486 -47.80438,31.12075 z" transform="translate(0,-852.36218)" style="fill:#e9e9ff;fill-opacity:.50196078;fill-rule:evenodd;stroke:none"/><path id="path3019" d="m 19.999996,1032.3622 0,-128.08508 112.195624,1.98957 0,125.29651 z" transform="translate(0,-852.36218)" style="fill:#353564;fill-opacity:.50196078;fill-rule:evenodd;stroke:none"/><path id="path3027" d="M 19.999996,904.27712 64.659255,872.36218 180,875.14594 132.19562,906.26669 z" transform="translate(0,-852.36218)" style="fill:#afafde;fill-opacity:.50196078;fill-rule:evenodd;stroke:none"/><path id="path3021" d="M 19.999996,1032.3622 64.659255,1005.2984 180,1005.0808 l -47.80438,26.4824 z" transform="translate(0,-852.36218)" style="fill:#4d4d9f;fill-opacity:.50196078;fill-rule:evenodd;stroke:none"/><path id="path3025" d="m 64.659255,1005.2984 0,-132.93622 L 180,875.14594 l 0,129.93486 z" transform="translate(0,-852.36218)" style="fill:#d7d7ff;fill-opacity:.50196078;fill-rule:evenodd;stroke:none"/><path id="path3023" d="m 19.999996,1032.3622 44.659259,-27.0638 0,-132.93622 -44.659259,31.91494 z" transform="translate(0,-852.36218)" style="fill:#8686bf;fill-opacity:.50196078;fill-rule:evenodd;stroke:none"/><path id="path3029-4" d="M 132.19562,1031.5632 180,1005.0808 l 0,-129.93486 -47.80438,31.12075 z" transform="translate(0,-852.36218)" style="fill:#e9e9ff;fill-opacity:.50196078;fill-rule:evenodd;stroke:none"/><path id="path3019-2" d="m 19.999996,1032.3622 0,-128.08508 112.195624,1.98957 0,125.29651 z" transform="translate(0,-852.36218)" style="fill:#353564;fill-opacity:.50196078;fill-rule:evenodd;stroke:none"/><path id="path3027-3" d="M 19.999996,904.27712 64.659255,872.36218 180,875.14594 132.19562,906.26669 z" transform="translate(0,-852.36218)" style="fill:#afafde;fill-opacity:.50196078;fill-rule:evenodd;stroke:none"/><path id="path3021-2" d="M 19.999996,1032.3622 64.659255,1005.2984 180,1005.0808 l -47.80438,26.4824 z" transform="translate(0,-852.36218)" style="fill:#4d4d9f;fill-opacity:.50196078;fill-rule:evenodd;stroke:none"/><path id="path3025-2" d="m 64.659255,1005.2984 0,-132.93622 L 180,875.14594 l 0,129.93486 z" transform="translate(0,-852.36218)" style="fill:#d7d7ff;fill-opacity:.50196078;fill-rule:evenodd;stroke:none"/><path id="path3023-1" d="m 19.999996,1032.3622 44.659259,-27.0638 0,-132.93622 -44.659259,31.91494 z" transform="translate(0,-852.36218)" style="fill:#8686bf;fill-opacity:.50196078;fill-rule:evenodd;stroke:none"/><g style="fill:#fff;fill-opacity:.50196078" id="g3017"><path id="path3029-6" style="fill:#e9e9ff;fill-rule:evenodd;stroke:none" d="M 122.19562,1041.5632 170,1015.0808 l 0,-129.93484 -47.80438,31.12075 z"/><path id="path3019-8" style="fill:#353564;fill-rule:evenodd;stroke:none" d="m 10.000003,1042.3622 0,-128.08506 112.195617,1.98957 0,125.29649 z"/><path id="path3027-5" style="fill:#afafde;fill-rule:evenodd;stroke:none" d="M 10.000003,914.27714 54.659262,882.3622 170,885.14596 122.19562,916.26671 z"/><path id="path3021-7" style="fill:#4d4d9f;fill-rule:evenodd;stroke:none" d="M 10.000003,1042.3622 54.659262,1015.2984 170,1015.0808 l -47.80438,26.4824 z"/><path id="path3025-6" style="fill:#d7d7ff;fill-rule:evenodd;stroke:none" d="m 54.659262,1015.2984 0,-132.9362 L 170,885.14596 l 0,129.93484 z"/><path id="path3023-18" style="fill:#8686bf;fill-rule:evenodd;stroke:none" d="m 10.000003,1042.3622 44.659259,-27.0638 0,-132.9362 -44.659259,31.91494 z"/></g></g></svg>