<svg xmlns="http://www.w3.org/2000/svg" xmlns:svg="http://www.w3.org/2000/svg" id="svg3825" width="64" height="64" version="1.1"><metadata id="metadata3830"/><g id="layer1" transform="translate(0,-988.36218)"><path style="fill:none;stroke:#000;stroke-width:3;stroke-linecap:butt;stroke-linejoin:miter;stroke-miterlimit:4;stroke-opacity:1;stroke-dasharray:6,6;stroke-dashoffset:0" id="path3833" d="m 4.7227738,1003.2946 56.5321022,0.106"/><path style="fill:#0090ff;fill-opacity:1;stroke:none" id="path4343" d="m 6.5705923,23.781616 a 1.0067843,1.0067843 0 1 1 -2.0135687,0 1.0067843,1.0067843 0 1 1 2.0135687,0 z" transform="matrix(1.9865228,0,0,1.9865228,-3.4358347,967.29912)"/><path style="fill:#0090ff;fill-opacity:1;stroke:none" id="path4343-9" d="m 6.5705923,23.781616 a 1.0067843,1.0067843 0 1 1 -2.0135687,0 1.0067843,1.0067843 0 1 1 2.0135687,0 z" transform="matrix(1.9865228,0,0,1.9865228,-0.98478848,971.84258)"/><path style="fill:#0090ff;fill-opacity:1;stroke:none" id="path4343-96" d="m 6.5705923,23.781616 a 1.0067843,1.0067843 0 1 1 -2.0135687,0 1.0067843,1.0067843 0 1 1 2.0135687,0 z" transform="matrix(1.9865228,0,0,1.9865228,2.1945303,975.9757)"/><path style="fill:#0090ff;fill-opacity:1;stroke:none" id="path4343-8" d="m 6.5705923,23.781616 a 1.0067843,1.0067843 0 1 1 -2.0135687,0 1.0067843,1.0067843 0 1 1 2.0135687,0 z" transform="matrix(1.9865228,0,0,1.9865228,6.221667,979.15502)"/><path style="fill:#0090ff;fill-opacity:1;stroke:none" id="path4343-3" d="m 6.5705923,23.781616 a 1.0067843,1.0067843 0 1 1 -2.0135687,0 1.0067843,1.0067843 0 1 1 2.0135687,0 z" transform="matrix(1.9865228,0,0,1.9865228,11.520532,980.32076)"/><path style="fill:#0090ff;fill-opacity:1;stroke:none" id="path4343-4" d="m 6.5705923,23.781616 a 1.0067843,1.0067843 0 1 1 -2.0135687,0 1.0067843,1.0067843 0 1 1 2.0135687,0 z" transform="matrix(1.9865228,0,0,1.9865228,17.349284,982.44031)"/><path style="fill:#0090ff;fill-opacity:1;stroke:none" id="path4343-84" d="m 6.5705923,23.781616 a 1.0067843,1.0067843 0 1 1 -2.0135687,0 1.0067843,1.0067843 0 1 1 2.0135687,0 z" transform="matrix(1.9865228,0,0,1.9865228,22.224239,986.46745)"/><path style="fill:#0090ff;fill-opacity:1;stroke:none" id="path4343-99" d="m 6.5705923,23.781616 a 1.0067843,1.0067843 0 1 1 -2.0135687,0 1.0067843,1.0067843 0 1 1 2.0135687,0 z" transform="matrix(1.9865228,0,0,1.9865228,26.88724,990.70654)"/><path style="fill:#0090ff;fill-opacity:1;stroke:none" id="path4343-2" d="m 6.5705923,23.781616 a 1.0067843,1.0067843 0 1 1 -2.0135687,0 1.0067843,1.0067843 0 1 1 2.0135687,0 z" transform="matrix(1.9865228,0,0,1.9865228,32.186104,988.16309)"/><path style="fill:#0090ff;fill-opacity:1;stroke:none" id="path4343-5" d="m 6.5705923,23.781616 a 1.0067843,1.0067843 0 1 1 -2.0135687,0 1.0067843,1.0067843 0 1 1 2.0135687,0 z" transform="matrix(1.9865228,0,0,1.9865228,36.955083,983.71204)"/><path style="fill:#0090ff;fill-opacity:1;stroke:none" id="path4343-53" d="m 6.5705923,23.781616 a 1.0067843,1.0067843 0 1 1 -2.0135687,0 1.0067843,1.0067843 0 1 1 2.0135687,0 z" transform="matrix(1.9865228,0,0,1.9865228,40.240379,979.15502)"/><path style="fill:#0090ff;fill-opacity:1;stroke:none" id="path4343-33" d="m 6.5705923,23.781616 a 1.0067843,1.0067843 0 1 1 -2.0135687,0 1.0067843,1.0067843 0 1 1 2.0135687,0 z" transform="matrix(1.9865228,0,0,1.9865228,43.207743,973.43225)"/><path style="fill:#0090ff;fill-opacity:1;stroke:none" id="path4343-7" d="m 6.5705923,23.781616 a 1.0067843,1.0067843 0 1 1 -2.0135687,0 1.0067843,1.0067843 0 1 1 2.0135687,0 z" transform="matrix(1.9865228,0,0,1.9865228,45.327289,967.49751)"/><path style="fill:#0090ff;fill-opacity:1;stroke:none" id="path4343-43" d="m 6.5705923,23.781616 a 1.0067843,1.0067843 0 1 1 -2.0135687,0 1.0067843,1.0067843 0 1 1 2.0135687,0 z" transform="matrix(1.9865228,0,0,1.9865228,47.446835,962.09267)"/><path style="fill:#0090ff;fill-opacity:1;stroke:none" id="path4343-80" d="m 6.5705923,23.781616 a 1.0067843,1.0067843 0 1 1 -2.0135687,0 1.0067843,1.0067843 0 1 1 2.0135687,0 z" transform="matrix(1.9865228,0,0,1.9865228,-4.6939937,962.19864)"/></g></svg>