<svg xmlns="http://www.w3.org/2000/svg" xmlns:svg="http://www.w3.org/2000/svg" id="svg2" width="120" height="120" version="1.1"><defs id="defs4"><marker id="arrow_start" markerHeight="10" markerUnits="strokeWidth" markerWidth="3" orient="auto" refX="0" refY="-5" viewBox="-10 -10 10 10"><path id="path3012" fill="red" stroke="none" d="M 0 0 L 10 5 L 0 10 z" transform="rotate(180)"/></marker><marker id="arrow_end" markerHeight="10" markerUnits="strokeWidth" markerWidth="3" orient="auto" refX="0" refY="5" viewBox="0 0 10 10"><path id="path3009" fill="red" stroke="none" d="M 0 0 L 10 5 L 0 10 z"/></marker></defs><metadata id="metadata7"/><g id="layer1" transform="translate(0,-932.36218)"><g id="g3904" transform="matrix(1.2042428,0,0,1.1822458,-12.074125,-177.79018)"><path id="path4867" d="m 103.40766,1014.2828 -0.15452,-49.18175 -43.573833,24.74362 0,49.48723 43.728353,-25.0491 z" style="opacity:.75;fill:#ff7f29;fill-opacity:1;fill-rule:evenodd;stroke:none"/><path id="path3992" d="m 16.028212,1014.2828 0.154518,-49.18175 43.573836,24.74362 0,49.48723 -43.728354,-25.0491 z" style="opacity:.75;fill:#d45400;fill-opacity:1;fill-rule:evenodd;stroke:none"/><path id="path2242" d="m 16.142573,965.15439 43.92257,-24.84054 43.048487,24.84054 -43.267008,24.84055 -43.704049,-24.84055 z" style="opacity:.75;fill:#ff9854;fill-opacity:1;fill-rule:evenodd;stroke:none"/><path id="path1349" d="m 59.756563,989.71248 0,49.79992" style="opacity:.5;fill:none;stroke:#000;stroke-width:2;stroke-linecap:butt;stroke-linejoin:miter;stroke-miterlimit:4;stroke-opacity:1;stroke-dasharray:none"/><path id="path2224" d="m 16,965.02288 43.63025,24.89996" style="opacity:.5;fill:none;stroke:#000;stroke-width:2;stroke-linecap:butt;stroke-linejoin:miter;stroke-miterlimit:4;stroke-opacity:1;stroke-dasharray:none"/><path id="path2226" d="M 103.51313,965.02288 59.882876,989.92284" style="opacity:.5;fill:none;stroke:#000;stroke-width:2;stroke-linecap:butt;stroke-linejoin:miter;stroke-miterlimit:4;stroke-opacity:1;stroke-dasharray:none"/><path id="path2228" d="m 103.33041,964.94472 0,49.79988" style="opacity:.5;fill:none;stroke:#000;stroke-width:2;stroke-linecap:butt;stroke-linejoin:miter;stroke-miterlimit:4;stroke-opacity:1;stroke-dasharray:none"/><path id="path2230" d="m 16.18273,964.79198 0,49.79992" style="opacity:.5;fill:none;stroke:#000;stroke-width:2;stroke-linecap:butt;stroke-linejoin:miter;stroke-miterlimit:4;stroke-opacity:1;stroke-dasharray:none"/><path id="path2234" d="m 16.000005,1014.3574 43.63025,24.9" style="opacity:.5;fill:none;stroke:#000;stroke-width:2;stroke-linecap:butt;stroke-linejoin:miter;stroke-miterlimit:4;stroke-opacity:1;stroke-dasharray:none"/><path id="path2236" d="m 59.573841,940.12652 43.630249,24.89996" style="opacity:.5;fill:none;stroke:#000;stroke-width:2;stroke-linecap:butt;stroke-linejoin:miter;stroke-miterlimit:4;stroke-opacity:1;stroke-dasharray:none"/><path id="path2238" d="M 59.939289,940.12652 16.30904,965.02648" style="opacity:.5;fill:none;stroke:#000;stroke-width:2;stroke-linecap:butt;stroke-linejoin:miter;stroke-miterlimit:4;stroke-opacity:1;stroke-dasharray:none"/><path id="path2240" d="m 103.20409,1014.5101 -43.630249,24.9" style="opacity:.5;fill:none;stroke:#000;stroke-width:2;stroke-linecap:butt;stroke-linejoin:miter;stroke-miterlimit:4;stroke-opacity:1;stroke-dasharray:none"/></g><svg id="svg3027" width="100%" height="100%" x="0" y="0" version="1.1" viewBox="-71 -163 142 163"/><svg id="svg3032" width="100%" height="100%" x="0" y="0" version="1.1" viewBox="-71 -81.5 142 163"/><text id="text3870" x="5.611" y="899.426" transform="scale(0.92311769,1.0832855)" style="font-size:69.83544159px;font-style:normal;font-weight:400;line-height:125%;letter-spacing:0;word-spacing:0;fill:#000;fill-opacity:1;stroke:none;font-family:Sans" xml:space="preserve"><tspan style="font-size:34.91772079px;font-weight:700;-inkscape-font-specification:Sans Bold" id="tspan3872" x="5.611" y="899.426">FRONT</tspan></text></g></svg>