<svg xmlns="http://www.w3.org/2000/svg" xmlns:svg="http://www.w3.org/2000/svg" id="svg2" width="400" height="400" version="1.1"><defs id="defs4"><linearGradient id="linearGradient4103"><stop style="stop-color:#0014ff;stop-opacity:1" id="stop4105" offset="0"/><stop style="stop-color:#0014ff;stop-opacity:0" id="stop4107" offset="1"/></linearGradient></defs><metadata id="metadata7"/><g id="layer2" transform="translate(0,-652.36218)"><path style="fill:none;stroke:#000;stroke-width:9;stroke-linecap:butt;stroke-linejoin:miter;stroke-miterlimit:4;stroke-opacity:1;stroke-dasharray:72,18,9,18;stroke-dashoffset:0" id="path3939" d="m 46.433116,670.97539 0,369.74101"/></g><g id="layer1" style="display:inline" transform="translate(0,-652.36218)"><path id="path3090" style="fill:none;stroke:red;stroke-width:20;stroke-linecap:butt;stroke-linejoin:miter;stroke-miterlimit:4;stroke-opacity:1;stroke-dasharray:none" d="m 183.16664,686.30558 c 0,0 -77.83297,35.9681 -78.13329,61.85086 -0.42253,36.41539 72.50144,58.37266 107.89837,87.93263 42.24156,35.27593 33.58519,85.03164 -3.56561,111.03355 C 167.04389,976.74397 40.542356,981.4014 40.542356,981.4014"/></g><g id="layer3" style="display:none" transform="translate(0,-652.36218)"><path style="fill:none;stroke:#000;stroke-width:7;stroke-linecap:butt;stroke-linejoin:miter;stroke-miterlimit:4;stroke-opacity:1;stroke-dasharray:21,7;stroke-dashoffset:0;display:inline" id="path3959" d="m 128.1878,748.225 83.87473,0"/><path transform="matrix(4.3997757,0,0,4.1682085,-1461.7034,-907.46071)" style="fill:#00f;fill-opacity:1;fill-rule:nonzero;stroke:none;display:inline" id="path3961-0" d="m 399.01026,397.27826 a 9.0913725,9.5964489 0 1 1 -18.18275,0 9.0913725,9.5964489 0 1 1 18.18275,0 z"/><path style="fill:none;stroke:#000;stroke-width:7;stroke-linecap:butt;stroke-linejoin:miter;stroke-miterlimit:4;stroke-opacity:1;stroke-dasharray:21,7;stroke-dashoffset:0;display:inline" id="path3959-2" d="m 168.90062,890.08768 51.97408,0"/><path transform="matrix(4.3997757,0,0,4.1682085,-1594.501,-764.41461)" style="fill:#0f0;fill-opacity:1;fill-rule:nonzero;stroke:none;display:inline" id="path3961-0-4" d="m 399.01026,397.27826 a 9.0913725,9.5964489 0 1 1 -18.18275,0 9.0913725,9.5964489 0 1 1 18.18275,0 z"/><path transform="matrix(4.3997757,0,0,4.1682085,-1381.3032,-711.14711)" style="fill:#f60;fill-opacity:1;fill-rule:nonzero;stroke:none;display:inline" id="path3961-0-4-5" d="m 399.01026,397.27826 a 9.0913725,9.5964489 0 1 1 -18.18275,0 9.0913725,9.5964489 0 1 1 18.18275,0 z"/><path style="fill:none;stroke:#000;stroke-width:7;stroke-linecap:butt;stroke-linejoin:miter;stroke-miterlimit:4;stroke-opacity:1;stroke-dasharray:21,7;stroke-dashoffset:0;display:inline" id="path3959-2-2" d="m 234.59597,945.28174 51.97408,0"/></g></svg>