<svg xmlns="http://www.w3.org/2000/svg" xmlns:svg="http://www.w3.org/2000/svg" id="svg4256" width="400" height="400" version="1.1"><metadata id="metadata4261"/><g id="layer1" transform="translate(0,-652.36218)"><g id="layer1-9" transform="matrix(0.41454262,0,0,0.39055119,42.357859,656.21318)"><path style="fill:none;stroke:#000;stroke-width:22.3675766;stroke-linecap:butt;stroke-linejoin:miter;stroke-miterlimit:4;stroke-opacity:1;stroke-dasharray:178.94061258,44.73515315,22.36757657,44.73515315;stroke-dashoffset:0" id="path3939" d="m 531.38517,15.919879 0,946.715871"/><g id="g3640" transform="matrix(1.2314645,0,0,1.1992685,64.716138,-67.714325)"><path style="fill:none;stroke:#000;stroke-width:15;stroke-linecap:butt;stroke-miterlimit:4;stroke-opacity:1;stroke-dasharray:none;stroke-dashoffset:0" id="path2816" d="m 537.14285,215.21933 c 0,31.55913 -85.06589,57.14286 -190,57.14286 -104.9341,0 -190,-25.58373 -190,-57.14286 0,-31.55913 85.0659,-57.14286 190,-57.14286 104.93411,0 190,25.58373 190,57.14286 z" transform="translate(31.428571,-11.428571)"/><path transform="translate(31.428147,502.85714)" style="fill:none;stroke:#000;stroke-width:15;stroke-linecap:butt;stroke-miterlimit:4;stroke-opacity:1;stroke-dasharray:none;stroke-dashoffset:0" id="path2816-1" d="m 537.14285,215.21933 c 0,31.55913 -85.06589,57.14286 -190,57.14286 -104.9341,0 -190,-25.58373 -190,-57.14286 0,-31.55913 85.0659,-57.14286 190,-57.14286 104.93411,0 190,25.58373 190,57.14286 z"/><path style="fill:none;stroke:#000;stroke-width:15;stroke-linecap:butt;stroke-linejoin:miter;stroke-miterlimit:4;stroke-opacity:1;stroke-dasharray:none" id="path2842" d="m 567.14286,198.07647 1.42857,517.14286"/><path style="fill:none;stroke:#000;stroke-width:15;stroke-linecap:butt;stroke-linejoin:miter;stroke-miterlimit:4;stroke-opacity:1;stroke-dasharray:none" id="path2842-7" d="m 188.77598,199.82106 1.42857,517.14285"/><path id="path4813" d="m 467.28277,357.89164 c 0,47.1277 -103.58834,141.38309 -345.29448,141.38309 V 405.01934 L -85.1884,546.40243 121.98829,687.78551 v -94.2554 c 190.3835,0 345.29448,-105.71551 345.29448,-235.63847 z" style="fill:#f60;fill-opacity:1;stroke:#000;stroke-width:9.79351234;stroke-miterlimit:4;stroke-opacity:1;stroke-dasharray:none"/><path style="fill:none;stroke:#000;stroke-width:5;stroke-linecap:butt;stroke-linejoin:miter;stroke-miterlimit:4;stroke-opacity:1;stroke-dasharray:5,5;stroke-dashoffset:0" id="path3638" d="m 568.57143,198.07647 -182.85714,2.85714"/></g></g></g></svg>